PathFileType	4	(X/Y/Z)	./resultDataOpenSim/trcMotMarkerGrf/sub09/qtm-03-05.trc
DataRate	CameraRate	NumFrames	NumMarkers	Units	OrigDataRate	OrigDataStartFrame	OrigNumFrames
250.000000	250.000000	7	24	m	250.000000	350	466
Frame#	Time	L.Toe.Tip			R.Toe.Tip			L.Ankle.Lat			R.Ankle.Lat			L.Ankle.Med			R.Ankle.Med			L.Heel			R.Heel			L.Knee.Lat			R.Knee.Lat			L.Knee.Med			R.Knee.Med			L.Thigh.Upper			R.Thigh.Upper			L.ASIS			R.ASIS			V.Sacral			L.Acromium			R.Acromium			C7			L.Elbow			R.Elbow			L.Wrist.Lat			R.Wrist.Lat
		X1	Y1	Z1	X2	Y2	Z2	X3	Y3	Z3	X4	Y4	Z4	X5	Y5	Z5	X6	Y6	Z6	X7	Y7	Z7	X8	Y8	Z8	X9	Y9	Z9	X10	Y10	Z10	X11	Y11	Z11	X12	Y12	Z12	X13	Y13	Z13	X14	Y14	Z14	X15	Y15	Z15	X16	Y16	Z16	X17	Y17	Z17	X18	Y18	Z18	X19	Y19	Z19	X20	Y20	Z20	X21	Y21	Z21	X22	Y22	Z22	X23	Y23	Z23	X24	Y24	Z24

350	1.396	0.54690752	0.12379939	-0.013750199	0.9850381	0.039965981	0.11528309	0.51458094	0.27350549	-0.061071935	0.83592236	0.052634637	0.14916933	0.53589529	0.26317812	0.034933352	0.84644889	0.093096294	0.058553206	0.4456409	0.3154194	-0.020566293	0.76729966	0.031695048	0.099489036	0.87151749	0.46645572	-0.07252331	0.91215226	0.50392691	0.21388428	0.87415508	0.45386622	0.055149628	0.89570573	0.49266463	0.087815222	0.77044619	0.86609826	-0.093272768	0.78571924	0.89371277	0.27513893	0.84910209	0.95657088	-0.041445416	0.86135535	0.97702273	0.19624835	0.68737262	1.0214575	0.0810909	0.84173849	1.4229812	-0.090738703	0.82225604	1.4267429	0.23963101	0.76288474	1.4716333	0.072854684	0.73688077	1.0651289	-0.13532754	0.69637221	1.0795024	0.31806657	0.89386985	0.85278823	-0.14793044	0.87077083	0.86456397	0.32475441
351	1.4	0.56351938	0.12437952	-0.013869264	0.98500383	0.039951673	0.11529109	0.52782871	0.27305643	-0.060432047	0.8359542	0.052713067	0.14913116	0.54914338	0.26282625	0.035706474	0.8465007	0.093118413	0.058449487	0.45775437	0.31379501	-0.019628897	0.76717207	0.031821169	0.099531012	0.88279776	0.4695952	-0.071172513	0.91338773	0.50382052	0.21394257	0.8850074	0.45713656	0.056710826	0.89701966	0.49259275	0.087848484	0.77710773	0.86820555	-0.093048744	0.79110509	0.89508625	0.27473473	0.85470329	0.95862231	-0.041006154	0.86658341	0.97835832	0.19671828	0.69270198	1.0230315	0.081192136	0.84667255	1.4244707	-0.0907067	0.82757871	1.428514	0.23970393	0.76789464	1.4733166	0.07305576	0.7405317	1.0671809	-0.13483359	0.70199012	1.0810148	0.31858134	0.89541296	0.85352663	-0.14881142	0.87793791	0.86712421	0.32424347
352	1.404	0.58024761	0.12479582	-0.01402847	0.98497006	0.039934276	0.11528245	0.54109008	0.27237944	-0.059726024	0.83605038	0.052772325	0.14904164	0.56264831	0.26224028	0.036348214	0.84652116	0.093149797	0.058348245	0.46993182	0.31176978	-0.018586327	0.76707208	0.031938244	0.099520733	0.89392391	0.47277103	-0.069866947	0.91453566	0.50371725	0.21388264	0.89574433	0.46043555	0.058224921	0.89764166	0.49259288	0.087807204	0.78376924	0.87024345	-0.092834136	0.79629768	0.89645135	0.27436427	0.86030764	0.96062922	-0.040577396	0.8717994	0.97965674	0.19719066	0.69800521	1.0245569	0.081279542	0.85160268	1.4259177	-0.090680801	0.83288507	1.4302538	0.23977002	0.77296902	1.4748613	0.073206732	0.74414581	1.0691985	-0.13439478	0.70775076	1.082514	0.31911036	0.89695784	0.8542851	-0.14972889	0.88505806	0.86964497	0.32374614
353	1.408	0.59704325	0.12505885	-0.014237918	0.98494749	0.03991416	0.11525973	0.55435578	0.27145847	-0.058953813	0.83612837	0.052815084	0.14893789	0.57630045	0.26137817	0.03690504	0.84653333	0.093183563	0.058245518	0.48218753	0.30935766	-0.017496038	0.7670064	0.032041509	0.099469271	0.90488106	0.47598356	-0.068613536	0.91555958	0.50361563	0.21365332	0.90638949	0.4637521	0.059651668	0.89758204	0.4926427	0.087757662	0.79026454	0.87219825	-0.092712833	0.80094088	0.89761237	0.27429837	0.86591366	0.96259098	-0.040162368	0.87700108	0.98091779	0.19765928	0.7033022	1.0260276	0.081365259	0.85653031	1.4273259	-0.09065652	0.83817484	1.4319601	0.23983198	0.77807401	1.4763038	0.073324088	0.74771818	1.0711753	-0.13400298	0.71367521	1.0840109	0.3196918	0.89851713	0.85506191	-0.15068143	0.89213088	0.87212175	0.32325117
354	1.412	0.61384809	0.12513231	-0.01446225	0.98494379	0.03989287	0.11522734	0.56764914	0.27027249	-0.058135108	0.83618085	0.05285132	0.14883499	0.58999337	0.26021611	0.037469088	0.84655955	0.093213757	0.058137749	0.49457806	0.30657894	-0.016464917	0.76695959	0.032135545	0.099406366	0.91567355	0.47921626	-0.067403503	0.91643673	0.50349166	0.21324371	0.91683278	0.46708411	0.06097765	0.89767938	0.49267319	0.087763969	0.79663557	0.87408454	-0.092656137	0.80478219	0.89836898	0.2747778	0.87151711	0.9645093	-0.039754925	0.88219229	0.98214492	0.19812189	0.7085981	1.0274369	0.081458113	0.86146049	1.4286941	-0.090629835	0.84345089	1.4336295	0.23989148	0.78318135	1.477696	0.073434435	0.751249	1.0731103	-0.13364777	0.71968075	1.0854954	0.32028347	0.90010014	0.85585369	-0.15166486	0.89916	0.87455123	0.32275441
355	1.416	0.63063814	0.12495588	-0.014654347	0.9849633	0.039871855	0.11519117	0.58100416	0.26881572	-0.057289871	0.83623278	0.052889474	0.14873229	0.60368417	0.2587703	0.038120514	0.84661296	0.093236848	0.05802426	0.50717593	0.30344507	-0.015581931	0.76692172	0.032224651	0.099344935	0.92632847	0.48243886	-0.066218115	0.91724917	0.50334908	0.21275071	0.92698502	0.47042535	0.062213063	0.89844644	0.49269636	0.087855497	0.80301621	0.87592119	-0.092579091	0.80808175	0.89878259	0.27566838	0.87710475	0.96638536	-0.039342685	0.88737882	0.98333769	0.19858055	0.71388739	1.028783	0.081557132	0.86639632	1.4300149	-0.090600335	0.84872054	1.4352583	0.23995186	0.78829065	1.4790613	0.073544314	0.75474342	1.0750067	-0.13332952	0.72563279	1.0869399	0.32082281	0.90170997	0.85665891	-0.15267472	0.9061532	0.87693072	0.32226147
356	1.42	0.64744082	0.12449034	-0.014799886	0.98500684	0.039851082	0.115156	0.59444571	0.26709638	-0.056426587	0.8362873	0.052933404	0.14863186	0.61738546	0.2570635	0.038877226	0.84670085	0.093251814	0.057904147	0.51994403	0.29995051	-0.014759073	0.76691807	0.032319233	0.099259628	0.93686053	0.48562671	-0.06504997	0.91815738	0.50322385	0.21234856	0.9369183	0.47375554	0.063354648	0.89966042	0.49279337	0.088002928	0.80949769	0.87770848	-0.092404398	0.81149863	0.89917167	0.27650368	0.88265296	0.96821582	-0.038903969	0.89256272	0.98449085	0.19903831	0.71916111	1.0300726	0.081657165	0.87133736	1.4312799	-0.090567952	0.85399069	1.4368423	0.24001454	0.79341721	1.4803977	0.073632775	0.75821517	1.0768651	-0.13305662	0.73145917	1.088321	0.32128791	0.90334702	0.85747518	-0.15370773	0.91311629	0.87925644	0.32177716
